<svg xmlns="http://www.w3.org/2000/svg" viewBox="0 0 60 60">
    <defs>
        <style>
            .cls-1{fill:#f2a348}.cls-2{fill:#f7c77a}.cls-3{fill:#7ec95f}.cls-4{fill:#a67c52}.cls-5{fill:#a1a1aa}.cls-6{fill:#d7d7e2}.cls-7{fill:#ed6863}.cls-8{fill:#c69c6d}
        </style>
    </defs>
    <g id="pizza" transform="translate(-2 -2)">
        <circle id="Ellipse_1" cx="24" cy="24" r="24" class="cls-1" data-name="Ellipse 1" transform="translate(14 6)"/>
        <circle id="Ellipse_2" cx="20" cy="20" r="20" class="cls-2" data-name="Ellipse 2" transform="translate(18 10)"/>
        <path id="Path_1" d="M32 62H6L4 26h30z" class="cls-3" data-name="Path 1"/>
        <path id="Path_2" d="M32.444 54l1.112-20H4.444l1.112 20z" class="cls-4" data-name="Path 2"/>
        <circle id="Ellipse_3" cx="6" cy="6" r="6" class="cls-5" data-name="Ellipse 3" transform="translate(13 38)"/>
        <ellipse id="Ellipse_4" cx="4.5" cy="5.803" class="cls-6" data-name="Ellipse 4" rx="4.5" ry="5.803" transform="translate(13 38.197)"/>
        <path id="Path_3" d="M2 20h34v6H2z" class="cls-4" data-name="Path 3"/>
        <path id="Path_4" d="M40 14a2.978 2.978 0 0 0-2 .779 3 3 0 1 0 0 4.442A3 3 0 1 0 40 14z" class="cls-7" data-name="Path 4"/>
        <path id="Path_5" d="M4 16h30v4H4z" class="cls-8" data-name="Path 5"/>
        <path id="Path_6" d="M26 4h4v12h-4z" class="cls-6" data-name="Path 6"/>
        <g id="Group_1" data-name="Group 1">
            <path id="Path_7" d="M54 6a6.325 6.325 0 0 0 4-4 6.325 6.325 0 0 0 4 4 6.325 6.325 0 0 0-4 4 6.325 6.325 0 0 0-4-4z" class="cls-7" data-name="Path 7"/>
            <path id="Path_8" d="M8 8a6.325 6.325 0 0 0 4-4 6.325 6.325 0 0 0 4 4 6.325 6.325 0 0 0-4 4 6.325 6.325 0 0 0-4-4z" class="cls-7" data-name="Path 8"/>
            <path id="Path_9" d="M54 32a2.978 2.978 0 0 0-.779-2 3 3 0 1 0-4.442 0A3 3 0 1 0 54 32z" class="cls-7" data-name="Path 9"/>
            <path id="Path_10" d="M40 40a2.978 2.978 0 0 0-2 .779 3 3 0 1 0 0 4.442A3 3 0 1 0 40 40z" class="cls-7" data-name="Path 10"/>
        </g>
        <path id="Path_11" d="M45.172 19h5.657v2h-5.657z" class="cls-3" data-name="Path 11" transform="rotate(-45 48 20)"/>
        <path id="Path_12" d="M47 37.172h2v5.657h-2z" class="cls-3" data-name="Path 12" transform="rotate(-45 48 40)"/>
    </g>
</svg>
