<svg id="Capa_1" enable-background="new 0 0 512 512" height="512" viewBox="0 0 512 512" width="512" xmlns="http://www.w3.org/2000/svg"><path d="m123.871 437.677c-40.984 0-74.323-33.343-74.323-74.323v-123.87c0-40.98 33.339-74.323 74.323-74.323 8.683 0 17.023 1.497 24.776 4.246l49.547 70.077v123.871l-49.548 70.069c-7.754 2.749-16.092 4.253-24.775 4.253zm0-246.58c-24.331 0-44.129 19.798-44.129 44.129v132.387c0 24.331 19.798 44.129 44.129 44.129s44.129-19.798 44.129-44.129v-132.387c0-24.331-19.798-44.129-44.129-44.129z" fill="#dbeaff"/><path d="m148.645 169.412v6.174c0 5.35-5.021 9.354-10.194 7.987-7.585-2.005-15.775-2.509-24.284-1.079-28.157 4.731-48.102 30.259-48.102 58.81v109.109c0 39.679 19.945 65.203 48.1 69.932 8.51 1.43 16.701.926 24.287-1.079 5.173-1.367 10.194 2.636 10.194 7.987v6.17c28.82-10.235 49.548-37.784 49.548-70.069v-123.87c0-32.284-20.729-59.837-49.549-70.072zm16.516 193.943c0 22.766-18.524 41.29-41.29 41.29s-41.29-18.524-41.29-41.29v-123.871c0-22.766 18.524-41.29 41.29-41.29s41.29 18.524 41.29 41.29z" fill="#c3ddff"/><path d="m445.935 49.548h-209.935c-9.121 0-16.516 7.394-16.516 16.516v421.086c0 9.121 7.395 16.516 16.516 16.516h209.935l16.516-8.183v-429.418c.001-9.122-7.395-16.517-16.516-16.517z" fill="#edf4ff"/><path d="m231.226 478.968v-429.42h-49.548c-9.122 0-16.516 7.395-16.516 16.516v429.419c0 9.122 7.395 16.516 16.516 16.516h264.258c9.121 0 16.516-7.395 16.516-16.516h-214.71c-9.122.001-16.516-7.394-16.516-16.515z" fill="#dbeaff"/><path d="m445.935 132.129-213.935 8.371v-66.177c0-4.561 3.697-8.258 8.258-8.258h197.419c4.561 0 8.258 3.697 8.258 8.258z" fill="#fff"/><path d="m231.226 66.065h-41.29c-4.561 0-8.258 3.697-8.258 8.258v57.806l49.548 10.871z" fill="#faf5dc"/><path d="m445.935 132.129h-222.967v338.581c0 4.561 3.697 8.258 8.258 8.258h206.452c4.561 0 8.258-3.697 8.258-8.258v-338.581z" fill="#ffc269"/><path d="m231.226 132.129h-49.548v338.581c0 4.56 3.697 8.258 8.258 8.258h41.29z" fill="#ffa95f"/><path d="m404.645 16.516c-4.043 0-7.87.829-11.451 2.159-6.679-6.422-15.713-10.417-25.711-10.417-5.377 0-10.452 1.201-15.049 3.284-2.622 1.188-5.747.879-8.007-.904-8.426-6.652-19.051-10.638-30.621-10.638s-22.195 3.986-30.621 10.638c-2.26 1.784-5.384 2.093-8.007.904-4.597-2.083-9.671-3.284-15.049-3.284-9.997 0-19.031 3.995-25.711 10.417-3.581-1.33-7.407-2.159-11.451-2.159-12.226 0-22.901 6.642-28.612 16.514l8.145 11.47c9.122 0 16.984 12.443 16.984 21.564l11.74 181.678c9.123.001 16.518-7.394 16.518-16.517v-165.161c0-9.122 7.395-21.064 16.516-21.064 9.122 0 22.409 11.943 22.409 21.064v81.697l10.633 17.4c9.117-.005 16.507-7.398 16.507-16.516v-82.581c0-9.122 7.395-21.564 16.516-21.564l96.427-3.25 6.506-8.221c-5.711-9.872-16.385-16.513-28.611-16.513z" fill="#faf5dc"/><g fill="#f5ebcd"><path d="m247.742 66.065c0-9.911 8.728-17.782 18.917-16.347 8.182 1.152 14.116 8.423 14.116 16.685v81.358c0 9.135 6.939 17.554 16.526 17.4l-.01-107.355c0-13.682-11.092-24.774-24.774-24.774-13.682 0-24.774 11.092-24.774 24.774v8.259z"/><path d="m189.935 49.548h8.258c9.122 0 16.516 7.395 16.516 16.516v164.277c0 9.135 6.927 17.554 16.514 17.4l.002-181.677c0-18.243-14.789-33.032-33.032-33.032h-3.835c-2.837 4.876-4.423 10.469-4.423 16.516z"/><path d="m330.323 49.548h107.355c0-6.048-1.584-11.641-4.421-16.516h-94.676c-13.682 0-24.774 11.092-24.774 24.774v8.258c-.001-9.121 7.394-16.516 16.516-16.516z"/></g></svg>